<svg width="32" height="32" viewBox="0 0 32 32" fill="none" xmlns="http://www.w3.org/2000/svg">
<circle cx="16" cy="16" r="16" fill="#7F3CE0"/>
<path d="M12.4583 10.8646C11.7131 10.8646 11.109 11.4579 11.109 12.1899V14.1778H12.4583V12.1899H14.1448V14.1778H15.4941V12.1899C15.4941 11.4579 14.89 10.8646 14.1448 10.8646H12.4583Z" fill="white"/>
<path d="M17.8554 10.8646C17.1102 10.8646 16.5061 11.4579 16.5061 12.1899V14.1778H17.8554V12.1899H19.5419V14.1778H20.8911V12.1899C20.8911 11.4579 20.2871 10.8646 19.5419 10.8646H17.8554Z" fill="white"/>
<path d="M11.109 19.4787C11.109 20.2107 11.7131 20.804 12.4583 20.804H14.1448C14.89 20.804 15.4941 20.2107 15.4941 19.4787V17.4909H14.1448V19.4787H12.4583V17.4909H11.109V19.4787Z" fill="white"/>
<path d="M16.5061 19.4787C16.5061 20.2107 17.1102 20.804 17.8554 20.804H19.5419C20.2871 20.804 20.8911 20.2107 20.8911 19.4787V17.4909H19.5419V19.4787H17.8554V17.4909H16.5061V19.4787Z" fill="white"/>
<path fill-rule="evenodd" clip-rule="evenodd" d="M17.0118 6.36631C16.3856 6.01122 15.6141 6.01122 14.9879 6.36631L8.01181 10.3224C7.38563 10.6775 6.99988 11.3337 6.99988 12.0439V19.9561C6.99988 20.6663 7.38563 21.3225 8.01181 21.6776L14.9879 25.6337C15.6141 25.9888 16.3856 25.9888 17.0118 25.6337L23.988 21.6776C24.6141 21.3225 24.9999 20.6663 24.9999 19.9561V12.0439C24.9999 11.3337 24.6141 10.6775 23.988 10.3224L17.0118 6.36631ZM15.6626 7.514C15.8713 7.39563 16.1285 7.39563 16.3371 7.514L23.3134 11.4701C23.5221 11.5884 23.6507 11.8072 23.6507 12.0439V13.8805C23.6235 13.916 23.5869 13.9627 23.5415 14.0173C23.4276 14.154 23.2633 14.3352 23.0614 14.5145C22.637 14.8918 22.1467 15.1717 21.6693 15.1717H10.2267C9.47196 15.1717 8.82686 15.515 8.34911 15.8801V12.0439C8.34911 11.8072 8.4777 11.5884 8.68642 11.4701L15.6626 7.514ZM8.34911 17.7844V19.9561C8.34911 20.1928 8.4777 20.4116 8.68642 20.5299L15.6626 24.486C15.8713 24.6044 16.1285 24.6044 16.3371 24.486L23.3134 20.5299C23.5221 20.4116 23.6507 20.1928 23.6507 19.9561V15.7568C23.1502 16.1347 22.4676 16.4969 21.6693 16.4969H10.2267C9.78845 16.4969 9.32742 16.7665 8.9184 17.1449C8.7253 17.3236 8.56787 17.5045 8.45872 17.641C8.41239 17.6991 8.37555 17.7481 8.34911 17.7844Z" fill="white"/>
</svg>
